<svg enable-background="new 0 0 62 64" viewBox="0 0 62 64" xmlns="http://www.w3.org/2000/svg"><path d="m61 27h-6v-6z" fill="#7e8488"/><path d="m55 14h-13v-13z" fill="#afb6bb"/><path d="m12 51h38v7h-38z" fill="#e7eced"/><path d="m12 20h38v7h-38z" fill="#e7eced"/><path d="m23 34v4s0 1-1 1c-.19 0-.54 0-1 0h-4c-1.13 0-2 0-2 0v-6h7s1 0 1 1z" fill="#fdb51e"/><path d="m21 39h1c1 0 1-1 1-1s0-3 0-4-1-1-1-1h-7v6h2zm40-12v24h-6-5-38-5-6v-24h6 5 38 5z" fill="#fdb51e"/><path d="m7 21v6h-6z" fill="#7e8488"/><path d="m55 51v12h-48v-12h5v7h38v-7z" fill="#fff"/><path d="m55 21v6h-5v-7h-38v7h-5v-6-20h35v13h13z" fill="#fff"/><g fill="none" stroke="#000" stroke-linejoin="round" stroke-miterlimit="10" stroke-width="2"><path d="m7 51v12h48v-12"/><path d="m55 27v-6-7l-13-13h-35v20 6"/><path d="m42 1v13h13"/><path d="m12 27v-7h38v7"/><path d="m50 51v7h-38v-7"/><path d="m61 27v24h-6-5-38-5-6v-24h6 5 38 5z"/><path d="m11 6h17"/><path d="m11 10h9"/><path d="m11 14h2"/><path d="m15 14h2"/><path d="m19 14h2"/><path d="m1 27 6-6"/><path d="m61 27-6-6"/><path d="m35 36c0-1.65-1.35-3-3-3h-2c-1.65 0-3 1.35-3 3 0 .82.34 1.58.88 2.12s1.3.88 2.12.88"/><path d="m27 42c0 1.65 1.35 3 3 3h2c1.65 0 3-1.35 3-3 0-.82-.34-1.58-.88-2.12s-1.3-.88-2.12-.88h-2"/><path d="m47 36c0-1.65-1.35-3-3-3h-2c-1.65 0-3 1.35-3 3 0 .82.34 1.58.88 2.12s1.3.88 2.12.88"/><path d="m39 42c0 1.65 1.35 3 3 3h2c1.65 0 3-1.35 3-3 0-.82-.34-1.58-.88-2.12s-1.3-.88-2.12-.88h-2"/><path d="m17 39c-1.13 0-2 0-2 0"/><path d="m15 46v-7-6h7s1 0 1 1 0 4 0 4 0 1-1 1c-.19 0-.54 0-1 0"/><path d="m17 39h4s2 1 2 2 0 5 0 5"/></g></svg>